# Blender 4.5.2 LTS
# www.blender.org
mtllib HexTile.mtl
o hex_forest_Cylinder.506
v 0.000000 -1.154700 1.000000
v 1.000000 -0.577350 1.000000
v 1.000000 0.577350 1.000000
v 0.000000 1.154700 1.000000
v -1.000000 0.577350 1.000000
v -1.000000 -0.577350 1.000000
v 0.000000 -1.154700 0.050000
v 0.000000 -1.096965 0.000000
v 0.950000 -0.548482 0.000000
v 1.000000 -0.577350 0.050000
v 0.950000 0.548483 0.000000
v 1.000000 0.577350 0.050000
v 0.000000 1.096965 0.000000
v 0.000000 1.154700 0.050000
v -0.950000 0.548482 0.000000
v -1.000000 0.577350 0.050000
v -0.950000 -0.548482 0.000000
v -1.000000 -0.577350 0.050000
vn 0.9051 -0.0000 0.4253
vn 1.0000 -0.0000 -0.0000
vn 0.9051 0.4253 -0.0000
vn -0.4525 -0.7838 0.4253
vn -0.5000 -0.8660 -0.0000
vn -0.0842 -0.9964 -0.0000
vn -0.2604 -0.0418 -0.9646
vn -0.1664 0.2046 -0.9646
vn 0.0940 0.2464 -0.9646
vn 0.2604 0.0418 -0.9646
vn 0.1664 -0.2046 -0.9646
vn -0.0940 -0.2464 -0.9646
vn -0.9051 -0.0000 0.4253
vn -1.0000 -0.0000 -0.0000
vn -0.9051 -0.4253 -0.0000
vn 0.4525 0.7838 0.4253
vn 0.5000 0.8660 -0.0000
vn 0.0842 0.9964 -0.0000
vn -0.4525 0.7838 0.4253
vn -0.5000 0.8660 -0.0000
vn -0.8208 0.5712 -0.0000
vn 0.3200 -0.2328 -0.9184
vn 0.5874 -0.5204 -0.6198
vn 0.4449 -0.7458 -0.4958
vn -0.0483 -0.7669 -0.6400
vn 0.3616 0.1607 -0.9184
vn 0.7444 0.2486 -0.6198
vn 0.8683 0.0124 -0.4958
vn 0.6400 -0.4253 -0.6400
vn 0.0416 0.3935 -0.9184
vn 0.1569 0.7689 -0.6198
vn 0.4235 0.7582 -0.4958
vn 0.6883 0.3416 -0.6400
vn -0.3200 0.2328 -0.9184
vn -0.5874 0.5204 -0.6198
vn -0.4449 0.7458 -0.4958
vn 0.0483 0.7669 -0.6400
vn -0.3616 -0.1607 -0.9184
vn -0.7444 -0.2486 -0.6198
vn -0.8683 -0.0124 -0.4958
vn -0.6400 0.4253 -0.6400
vn -0.0416 -0.3935 -0.9184
vn -0.1569 -0.7689 -0.6198
vn -0.4235 -0.7582 -0.4958
vn -0.6883 -0.3416 -0.6400
vn 0.4525 -0.7838 0.4253
vn 0.5000 -0.8660 -0.0000
vn 0.8208 -0.5712 -0.0000
vt 0.671829 0.553624
vt 0.646159 0.553346
vt 0.643631 0.568981
vt 0.669302 0.569259
vt 0.668963 0.600580
vt 0.643292 0.600302
vt 0.645481 0.615988
vt 0.671152 0.616265
vt 0.453935 0.060869
vt 0.479705 0.045991
vt 0.479705 0.016235
vt 0.453935 0.001356
vt 0.428165 0.016235
vt 0.428165 0.045991
vt 0.877989 0.207124
vt 0.852317 0.207124
vt 0.852317 0.238447
vt 0.877989 0.238447
vt 0.342035 0.606065
vt 0.316363 0.606065
vt 0.316363 0.637388
vt 0.342035 0.637388
vt 0.344394 0.590404
vt 0.318721 0.590404
vt 0.344394 0.653049
s 0
usemtl Green
f 12/1/1 3/2/2 2/3/2 10/4/3
f 7/5/4 1/6/5 6/7/5 18/8/6
f 9/9/7 8/10/8 17/11/9 15/12/10 13/13/11 11/14/12
f 18/15/13 6/16/14 5/17/14 16/18/15
f 14/19/16 4/20/17 3/21/17 12/22/18
f 16/23/19 5/24/20 4/20/20 14/19/21
f 7/5/22 8/10/23 9/9/24 10/4/25
f 10/25/26 9/9/27 11/14/28 12/22/29
f 12/22/30 11/14/31 13/13/32 14/19/33
f 14/19/34 13/13/35 15/12/36 16/23/37
f 16/18/38 15/12/39 17/11/40 18/15/41
f 18/8/42 17/11/43 8/10/44 7/5/45
f 10/4/46 2/3/47 1/6/47 7/5/48
